<?xml version="1.0" encoding="UTF-8" standalone="no"?>
<!DOCTYPE svg PUBLIC "-//W3C//DTD SVG 1.1//EN" "http://www.w3.org/Graphics/SVG/1.1/DTD/svg11.dtd">
<svg width="100%" height="100%" viewBox="0 0 2232 2232" version="1.1" xmlns="http://www.w3.org/2000/svg" xmlns:xlink="http://www.w3.org/1999/xlink" xml:space="preserve" xmlns:serif="http://www.serif.com/" style="fill-rule:evenodd;clip-rule:evenodd;stroke-linejoin:round;stroke-miterlimit:1.41421;">
    <g transform="matrix(1,0,0,1,-137.115,-115.042)">
        <g id="Layer-1" serif:id="Layer 1" transform="matrix(4.16667,0,0,4.16667,0,0)">
            <g transform="matrix(1,0,0,1,200.658,327.648)">
                <path d="M0,-64.7L38.49,45.169L59.798,45.169L98.287,-63.839L98.287,45.169L125.649,45.169L125.649,-20.192L199.548,-20.192L199.548,45.169L226.801,45.169L226.801,-109.869L199.548,-109.869L199.548,-45.45L125.649,-45.45L125.649,-109.869L85.279,-109.869L49.311,-3.486L13.667,-109.869L-26.785,-109.869L-26.785,45.169L0,45.169L0,-64.7Z" style="fill:white;fill-rule:nonzero;"/>
            </g>
            <g transform="matrix(1,0,0,1,538.54,215.373)">
                <path d="M0,40.742C-2.277,26.908 -5.778,13.308 -10.489,0C-5.778,13.308 -2.278,26.908 0,40.742" style="fill:white;fill-rule:nonzero;"/>
            </g>
            <g transform="matrix(1,0,0,1,300.664,485.789)">
                <path d="M0,-378.442C103.638,-378.442 187.955,-294.128 187.955,-190.49C187.955,-86.853 103.638,-2.538 0,-2.538C-103.637,-2.538 -187.95,-86.853 -187.95,-190.49C-187.95,-294.128 -103.637,-378.442 0,-378.442M267.254,-173.843C270.142,-221.235 260.6,-266.197 241.616,-305.808C241.558,-305.931 241.482,-306.036 241.399,-306.13C240.77,-306.842 239.539,-306.731 239.093,-305.8L225.425,-276.41C225.161,-275.844 225.138,-275.199 225.357,-274.615C236.412,-245.111 241.859,-212.893 240.31,-179.241C234.617,-55.615 134.307,44.472 10.667,49.843C-64.618,53.113 -132.773,21.56 -179.043,-30.011C-179.557,-30.584 -179.181,-31.51 -178.414,-31.567L-151.571,-33.558C-150.767,-33.618 -149.98,-33.334 -149.395,-32.779C-106.905,7.494 -48.262,30.882 15.714,26.353C122.495,18.791 208.701,-67.05 216.771,-173.795C219.532,-210.327 213.134,-245.119 199.735,-276.213C199.417,-276.951 199.431,-277.785 199.778,-278.51L237.925,-358.045C238.547,-359.341 237.517,-360.818 236.086,-360.684L209.906,-358.226C209.113,-358.152 208.341,-358.48 207.838,-359.098C201.91,-366.393 195.616,-373.379 188.966,-380.009C151.079,-417.785 101.972,-444.313 47.139,-454.091L46.566,-454.092C31.437,-456.758 15.883,-458.179 0,-458.179C-15.673,-458.179 -31.032,-456.812 -45.975,-454.214L-46.387,-454.215C-171.996,-432.183 -267.756,-322.313 -267.756,-190.49C-267.756,-152.409 -259.756,-116.164 -245.362,-83.334C-245.272,-83.128 -245.168,-82.972 -245.06,-82.839C-244.562,-82.233 -243.916,-82.386 -243.487,-83.325L-228.959,-115.115C-228.77,-115.527 -228.744,-115.993 -228.884,-116.424C-237.546,-143.119 -241.67,-171.838 -240.307,-201.677C-234.613,-326.299 -132.798,-426.793 -8.114,-430.92C63.251,-433.282 128.032,-404.366 173.579,-356.868C173.879,-356.556 173.693,-356.026 173.264,-355.968L145.928,-352.251C145.449,-352.186 144.969,-352.334 144.608,-352.656C117.486,-376.867 84.277,-394.391 47.597,-402.623C47.588,-402.665 47.574,-402.705 47.565,-402.747C32.251,-406.176 16.337,-408 0.003,-408C-16.068,-408 -31.731,-406.232 -46.818,-402.909C-46.827,-402.869 -46.84,-402.831 -46.848,-402.791C-144.276,-381.306 -217.396,-294.284 -217.396,-190.49C-217.396,-164.149 -212.656,-138.902 -204.033,-115.517C-203.696,-114.602 -203.729,-113.597 -204.134,-112.711L-241.969,-29.714C-242.577,-28.381 -241.534,-26.884 -240.072,-26.993L-215.82,-28.792C-214.312,-28.904 -212.857,-28.245 -211.932,-27.047C-206.457,-19.963 -200.638,-13.159 -194.496,-6.663C-143.762,46.987 -71.146,79.737 8.921,77.121C33.327,76.325 56.953,72.192 79.361,65.191C79.503,65.147 79.645,65.101 79.786,65.057C81.534,64.51 83.272,63.941 85.005,63.359C85.604,63.157 86.203,62.953 86.801,62.746C88.037,62.321 89.268,61.884 90.496,61.442C91.501,61.079 92.504,60.712 93.503,60.337C94.27,60.05 95.033,59.757 95.796,59.464C97.19,58.925 98.583,58.382 99.967,57.821C100.266,57.701 100.563,57.577 100.862,57.454C153.504,35.887 197.974,-2.027 227.739,-49.959C227.914,-50.241 228.093,-50.52 228.267,-50.803C228.947,-51.908 229.609,-53.024 230.273,-54.139C230.759,-54.955 231.247,-55.768 231.724,-56.589C232.141,-57.306 232.548,-58.031 232.959,-58.753C233.674,-60.012 234.387,-61.274 235.082,-62.546C235.283,-62.913 235.48,-63.283 235.68,-63.65C236.583,-65.322 237.476,-67.001 238.344,-68.694L238.382,-68.767C239.549,-71.037 240.676,-73.33 241.779,-75.636C241.805,-75.69 241.829,-75.744 241.855,-75.797C256.206,-105.839 265.127,-138.939 267.254,-173.843" style="fill:white;fill-rule:nonzero;"/>
            </g>
        </g>
    </g>
</svg>
